STARTFONT 2.1
FONT -freetype-vice cbm-medium-r-normal-medium-12-120-100-72-m-104-symbol-0
SIZE 12 100 100
FONTBOUNDINGBOX 8 8 0 0
STARTPROPERTIES 16
POINT_SIZE 120
PIXEL_SIZE 12
RESOLUTION_X 100
RESOLUTION_Y 72
FONT_ASCENT 8
FONT_DESCENT 0
AVERAGE_WIDTH 104
SPACING "M"
FOUNDRY "FreeType"
FAMILY_NAME "VICE CBM"
CHARSET_REGISTRY "Symbol"
WEIGHT_NAME "Medium"
SLANT "R"
SETWIDTH_NAME "Normal"
COPYRIGHT "Typeface Commodore Business Machines"
_XMBDFED_INFO "Converted by MP, Edited with xmbdfed 4.3."
ENDPROPERTIES
CHARS 192
STARTCHAR char32
ENCODING 32
SWIDTH 480 0
DWIDTH 8 0
BBX 0 0 0 0
BITMAP
ENDCHAR
STARTCHAR char33
ENCODING 33
SWIDTH 480 0
DWIDTH 8 0
BBX 2 7 3 1
BITMAP
C0
C0
C0
C0
00
00
C0
ENDCHAR
STARTCHAR char34
ENCODING 34
SWIDTH 480 0
DWIDTH 8 0
BBX 6 3 1 5
BITMAP
CC
CC
CC
ENDCHAR
STARTCHAR char35
ENCODING 35
SWIDTH 480 0
DWIDTH 8 0
BBX 8 7 0 1
BITMAP
66
66
FF
66
FF
66
66
ENDCHAR
STARTCHAR char36
ENCODING 36
SWIDTH 480 0
DWIDTH 8 0
BBX 6 7 1 1
BITMAP
30
7C
C0
78
0C
F8
30
ENDCHAR
STARTCHAR char37
ENCODING 37
SWIDTH 480 0
DWIDTH 8 0
BBX 6 7 1 1
BITMAP
C4
CC
18
30
60
CC
8C
ENDCHAR
STARTCHAR char38
ENCODING 38
SWIDTH 480 0
DWIDTH 8 0
BBX 7 7 1 1
BITMAP
78
CC
78
70
CE
CC
7E
ENDCHAR
STARTCHAR char39
ENCODING 39
SWIDTH 480 0
DWIDTH 8 0
BBX 4 3 3 5
BITMAP
30
60
C0
ENDCHAR
STARTCHAR char40
ENCODING 40
SWIDTH 480 0
DWIDTH 8 0
BBX 4 7 2 1
BITMAP
30
60
C0
C0
C0
60
30
ENDCHAR
STARTCHAR char41
ENCODING 41
SWIDTH 480 0
DWIDTH 8 0
BBX 4 7 2 1
BITMAP
C0
60
30
30
30
60
C0
ENDCHAR
STARTCHAR char42
ENCODING 42
SWIDTH 480 0
DWIDTH 8 0
BBX 8 5 0 2
BITMAP
66
3C
FF
3C
66
ENDCHAR
STARTCHAR char43
ENCODING 43
SWIDTH 480 0
DWIDTH 8 0
BBX 6 5 1 2
BITMAP
30
30
FC
30
30
ENDCHAR
STARTCHAR char44
ENCODING 44
SWIDTH 480 0
DWIDTH 8 0
BBX 3 3 2 0
BITMAP
60
60
C0
ENDCHAR
STARTCHAR char45
ENCODING 45
SWIDTH 480 0
DWIDTH 8 0
BBX 6 1 1 4
BITMAP
FC
ENDCHAR
STARTCHAR char46
ENCODING 46
SWIDTH 480 0
DWIDTH 8 0
BBX 2 2 3 1
BITMAP
C0
C0
ENDCHAR
STARTCHAR char47
ENCODING 47
SWIDTH 480 0
DWIDTH 8 0
BBX 7 6 1 1
BITMAP
06
0C
18
30
60
C0
ENDCHAR
STARTCHAR char48
ENCODING 48
SWIDTH 480 0
DWIDTH 8 0
BBX 6 7 1 1
BITMAP
78
CC
DC
EC
CC
CC
78
ENDCHAR
STARTCHAR char49
ENCODING 49
SWIDTH 480 0
DWIDTH 8 0
BBX 6 7 1 1
BITMAP
30
30
70
30
30
30
FC
ENDCHAR
STARTCHAR char50
ENCODING 50
SWIDTH 480 0
DWIDTH 8 0
BBX 6 7 1 1
BITMAP
78
CC
0C
18
60
C0
FC
ENDCHAR
STARTCHAR char51
ENCODING 51
SWIDTH 480 0
DWIDTH 8 0
BBX 6 7 1 1
BITMAP
78
CC
0C
38
0C
CC
78
ENDCHAR
STARTCHAR char52
ENCODING 52
SWIDTH 480 0
DWIDTH 8 0
BBX 7 7 1 1
BITMAP
0C
1C
3C
CC
FE
0C
0C
ENDCHAR
STARTCHAR char53
ENCODING 53
SWIDTH 480 0
DWIDTH 8 0
BBX 6 7 1 1
BITMAP
FC
C0
F8
0C
0C
CC
78
ENDCHAR
STARTCHAR char54
ENCODING 54
SWIDTH 480 0
DWIDTH 8 0
BBX 6 7 1 1
BITMAP
78
CC
C0
F8
CC
CC
78
ENDCHAR
STARTCHAR char55
ENCODING 55
SWIDTH 480 0
DWIDTH 8 0
BBX 6 7 1 1
BITMAP
FC
CC
18
30
30
30
30
ENDCHAR
STARTCHAR char56
ENCODING 56
SWIDTH 480 0
DWIDTH 8 0
BBX 6 7 1 1
BITMAP
78
CC
CC
78
CC
CC
78
ENDCHAR
STARTCHAR char57
ENCODING 57
SWIDTH 480 0
DWIDTH 8 0
BBX 6 7 1 1
BITMAP
78
CC
CC
7C
0C
CC
78
ENDCHAR
STARTCHAR char58
ENCODING 58
SWIDTH 480 0
DWIDTH 8 0
BBX 2 4 3 2
BITMAP
C0
00
00
C0
ENDCHAR
STARTCHAR char59
ENCODING 59
SWIDTH 480 0
DWIDTH 8 0
BBX 3 6 2 0
BITMAP
60
00
00
60
60
C0
ENDCHAR
STARTCHAR char60
ENCODING 60
SWIDTH 480 0
DWIDTH 8 0
BBX 6 7 1 1
BITMAP
1C
30
60
C0
60
30
1C
ENDCHAR
STARTCHAR char61
ENCODING 61
SWIDTH 480 0
DWIDTH 8 0
BBX 6 3 1 3
BITMAP
FC
00
FC
ENDCHAR
STARTCHAR char62
ENCODING 62
SWIDTH 480 0
DWIDTH 8 0
BBX 6 7 1 1
BITMAP
E0
30
18
0C
18
30
E0
ENDCHAR
STARTCHAR char63
ENCODING 63
SWIDTH 480 0
DWIDTH 8 0
BBX 6 7 1 1
BITMAP
78
CC
0C
18
30
00
30
ENDCHAR
STARTCHAR char0
ENCODING 64
SWIDTH 480 0
DWIDTH 8 0
BBX 6 7 1 1
BITMAP
78
CC
DC
DC
C0
C4
78
ENDCHAR
STARTCHAR char1
ENCODING 65
SWIDTH 480 0
DWIDTH 8 0
BBX 6 7 1 1
BITMAP
30
78
CC
FC
CC
CC
CC
ENDCHAR
STARTCHAR char2
ENCODING 66
SWIDTH 480 0
DWIDTH 8 0
BBX 6 7 1 1
BITMAP
F8
CC
CC
F8
CC
CC
F8
ENDCHAR
STARTCHAR char3
ENCODING 67
SWIDTH 480 0
DWIDTH 8 0
BBX 6 7 1 1
BITMAP
78
CC
C0
C0
C0
CC
78
ENDCHAR
STARTCHAR char4
ENCODING 68
SWIDTH 480 0
DWIDTH 8 0
BBX 6 7 1 1
BITMAP
F0
D8
CC
CC
CC
D8
F0
ENDCHAR
STARTCHAR char5
ENCODING 69
SWIDTH 480 0
DWIDTH 8 0
BBX 6 7 1 1
BITMAP
FC
C0
C0
F0
C0
C0
FC
ENDCHAR
STARTCHAR char6
ENCODING 70
SWIDTH 480 0
DWIDTH 8 0
BBX 6 7 1 1
BITMAP
FC
C0
C0
F0
C0
C0
C0
ENDCHAR
STARTCHAR char7
ENCODING 71
SWIDTH 480 0
DWIDTH 8 0
BBX 6 7 1 1
BITMAP
78
CC
C0
DC
CC
CC
78
ENDCHAR
STARTCHAR char8
ENCODING 72
SWIDTH 480 0
DWIDTH 8 0
BBX 6 7 1 1
BITMAP
CC
CC
CC
FC
CC
CC
CC
ENDCHAR
STARTCHAR char9
ENCODING 73
SWIDTH 480 0
DWIDTH 8 0
BBX 4 7 2 1
BITMAP
F0
60
60
60
60
60
F0
ENDCHAR
STARTCHAR char10
ENCODING 74
SWIDTH 480 0
DWIDTH 8 0
BBX 6 7 1 1
BITMAP
3C
18
18
18
18
D8
70
ENDCHAR
STARTCHAR char11
ENCODING 75
SWIDTH 480 0
DWIDTH 8 0
BBX 6 7 1 1
BITMAP
CC
D8
F0
E0
F0
D8
CC
ENDCHAR
STARTCHAR char12
ENCODING 76
SWIDTH 480 0
DWIDTH 8 0
BBX 6 7 1 1
BITMAP
C0
C0
C0
C0
C0
C0
FC
ENDCHAR
STARTCHAR char13
ENCODING 77
SWIDTH 480 0
DWIDTH 8 0
BBX 7 7 1 1
BITMAP
C6
EE
FE
D6
C6
C6
C6
ENDCHAR
STARTCHAR char14
ENCODING 78
SWIDTH 480 0
DWIDTH 8 0
BBX 6 7 1 1
BITMAP
CC
EC
FC
FC
DC
CC
CC
ENDCHAR
STARTCHAR char15
ENCODING 79
SWIDTH 480 0
DWIDTH 8 0
BBX 6 7 1 1
BITMAP
78
CC
CC
CC
CC
CC
78
ENDCHAR
STARTCHAR char16
ENCODING 80
SWIDTH 480 0
DWIDTH 8 0
BBX 6 7 1 1
BITMAP
F8
CC
CC
F8
C0
C0
C0
ENDCHAR
STARTCHAR char17
ENCODING 81
SWIDTH 480 0
DWIDTH 8 0
BBX 6 7 1 1
BITMAP
78
CC
CC
CC
CC
78
1C
ENDCHAR
STARTCHAR char18
ENCODING 82
SWIDTH 480 0
DWIDTH 8 0
BBX 6 7 1 1
BITMAP
F8
CC
CC
F8
F0
D8
CC
ENDCHAR
STARTCHAR char19
ENCODING 83
SWIDTH 480 0
DWIDTH 8 0
BBX 6 7 1 1
BITMAP
78
CC
C0
78
0C
CC
78
ENDCHAR
STARTCHAR char20
ENCODING 84
SWIDTH 480 0
DWIDTH 8 0
BBX 6 7 1 1
BITMAP
FC
30
30
30
30
30
30
ENDCHAR
STARTCHAR char21
ENCODING 85
SWIDTH 480 0
DWIDTH 8 0
BBX 6 7 1 1
BITMAP
CC
CC
CC
CC
CC
CC
78
ENDCHAR
STARTCHAR char22
ENCODING 86
SWIDTH 480 0
DWIDTH 8 0
BBX 6 7 1 1
BITMAP
CC
CC
CC
CC
CC
78
30
ENDCHAR
STARTCHAR char23
ENCODING 87
SWIDTH 480 0
DWIDTH 8 0
BBX 7 7 1 1
BITMAP
C6
C6
C6
D6
FE
EE
C6
ENDCHAR
STARTCHAR char24
ENCODING 88
SWIDTH 480 0
DWIDTH 8 0
BBX 6 7 1 1
BITMAP
CC
CC
78
30
78
CC
CC
ENDCHAR
STARTCHAR char25
ENCODING 89
SWIDTH 480 0
DWIDTH 8 0
BBX 6 7 1 1
BITMAP
CC
CC
CC
78
30
30
30
ENDCHAR
STARTCHAR char26
ENCODING 90
SWIDTH 480 0
DWIDTH 8 0
BBX 6 7 1 1
BITMAP
FC
0C
18
30
60
C0
FC
ENDCHAR
STARTCHAR char27
ENCODING 91
SWIDTH 480 0
DWIDTH 8 0
BBX 4 7 2 1
BITMAP
F0
C0
C0
C0
C0
C0
F0
ENDCHAR
STARTCHAR char28
ENCODING 92
SWIDTH 480 0
DWIDTH 8 0
BBX 7 7 0 1
BITMAP
0C
12
30
7C
30
62
FC
ENDCHAR
STARTCHAR char29
ENCODING 93
SWIDTH 480 0
DWIDTH 8 0
BBX 4 7 2 1
BITMAP
F0
30
30
30
30
30
F0
ENDCHAR
STARTCHAR char30
ENCODING 94
SWIDTH 480 0
DWIDTH 8 0
BBX 6 7 1 0
BITMAP
30
78
FC
30
30
30
30
ENDCHAR
STARTCHAR char31
ENCODING 95
SWIDTH 480 0
DWIDTH 8 0
BBX 7 6 1 1
BITMAP
20
60
FE
FE
60
20
ENDCHAR
STARTCHAR char64
ENCODING 96
SWIDTH 480 0
DWIDTH 8 0
BBX 8 2 0 3
BITMAP
FF
FF
ENDCHAR
STARTCHAR char65
ENCODING 97
SWIDTH 480 0
DWIDTH 8 0
BBX 7 7 1 1
BITMAP
10
38
7C
FE
FE
38
7C
ENDCHAR
STARTCHAR char66
ENCODING 98
SWIDTH 480 0
DWIDTH 8 0
BBX 8 8 0 0
BITMAP
18
18
18
18
18
18
18
18
ENDCHAR
STARTCHAR char67
ENCODING 99
SWIDTH 480 0
DWIDTH 8 0
BBX 8 2 0 3
BITMAP
FF
FF
ENDCHAR
STARTCHAR char68
ENCODING 100
SWIDTH 480 0
DWIDTH 8 0
BBX 8 2 0 4
BITMAP
FF
FF
ENDCHAR
STARTCHAR char69
ENCODING 101
SWIDTH 480 0
DWIDTH 8 0
BBX 8 2 0 5
BITMAP
FF
FF
ENDCHAR
STARTCHAR char70
ENCODING 102
SWIDTH 480 0
DWIDTH 8 0
BBX 8 2 0 2
BITMAP
FF
FF
ENDCHAR
STARTCHAR char71
ENCODING 103
SWIDTH 480 0
DWIDTH 8 0
BBX 8 8 0 0
BITMAP
30
30
30
30
30
30
30
30
ENDCHAR
STARTCHAR char72
ENCODING 104
SWIDTH 480 0
DWIDTH 8 0
BBX 8 8 0 0
BITMAP
0C
0C
0C
0C
0C
0C
0C
0C
ENDCHAR
STARTCHAR char73
ENCODING 105
SWIDTH 480 0
DWIDTH 8 0
BBX 5 5 0 0
BITMAP
E0
F0
38
18
18
ENDCHAR
STARTCHAR char74
ENCODING 106
SWIDTH 480 0
DWIDTH 8 0
BBX 5 5 3 3
BITMAP
C0
C0
E0
78
38
ENDCHAR
STARTCHAR char75
ENCODING 107
SWIDTH 480 0
DWIDTH 8 0
BBX 5 5 0 3
BITMAP
18
18
38
F0
E0
ENDCHAR
STARTCHAR char76
ENCODING 108
SWIDTH 480 0
DWIDTH 8 0
BBX 8 8 0 0
BITMAP
C0
C0
C0
C0
C0
C0
FF
FF
ENDCHAR
STARTCHAR char77
ENCODING 109
SWIDTH 480 0
DWIDTH 8 0
BBX 8 8 0 0
BITMAP
C0
E0
70
38
1C
0E
07
03
ENDCHAR
STARTCHAR char78
ENCODING 110
SWIDTH 480 0
DWIDTH 8 0
BBX 8 8 0 0
BITMAP
03
07
0E
1C
38
70
E0
C0
ENDCHAR
STARTCHAR char79
ENCODING 111
SWIDTH 480 0
DWIDTH 8 0
BBX 8 8 0 0
BITMAP
FF
FF
C0
C0
C0
C0
C0
C0
ENDCHAR
STARTCHAR char80
ENCODING 112
SWIDTH 480 0
DWIDTH 8 0
BBX 8 8 0 0
BITMAP
FF
FF
03
03
03
03
03
03
ENDCHAR
STARTCHAR char81
ENCODING 113
SWIDTH 480 0
DWIDTH 8 0
BBX 6 6 1 1
BITMAP
78
FC
FC
FC
FC
78
ENDCHAR
STARTCHAR char82
ENCODING 114
SWIDTH 480 0
DWIDTH 8 0
BBX 8 2 0 1
BITMAP
FF
FF
ENDCHAR
STARTCHAR char83
ENCODING 115
SWIDTH 480 0
DWIDTH 8 0
BBX 7 7 1 1
BITMAP
6C
FE
FE
FE
7C
38
10
ENDCHAR
STARTCHAR char84
ENCODING 116
SWIDTH 480 0
DWIDTH 8 0
BBX 8 8 0 0
BITMAP
60
60
60
60
60
60
60
60
ENDCHAR
STARTCHAR char85
ENCODING 117
SWIDTH 480 0
DWIDTH 8 0
BBX 5 5 3 0
BITMAP
38
78
E0
C0
C0
ENDCHAR
STARTCHAR char86
ENCODING 118
SWIDTH 480 0
DWIDTH 8 0
BBX 8 8 0 0
BITMAP
C3
E7
7E
3C
3C
7E
E7
C3
ENDCHAR
STARTCHAR char87
ENCODING 119
SWIDTH 480 0
DWIDTH 8 0
BBX 6 6 1 1
BITMAP
78
FC
CC
CC
FC
78
ENDCHAR
STARTCHAR char88
ENCODING 120
SWIDTH 480 0
DWIDTH 8 0
BBX 6 7 1 1
BITMAP
30
30
CC
CC
30
30
78
ENDCHAR
STARTCHAR char89
ENCODING 121
SWIDTH 480 0
DWIDTH 8 0
BBX 8 8 0 0
BITMAP
06
06
06
06
06
06
06
06
ENDCHAR
STARTCHAR char90
ENCODING 122
SWIDTH 480 0
DWIDTH 8 0
BBX 7 7 1 1
BITMAP
10
38
7C
FE
7C
38
10
ENDCHAR
STARTCHAR char91
ENCODING 123
SWIDTH 480 0
DWIDTH 8 0
BBX 8 8 0 0
BITMAP
18
18
18
FF
FF
18
18
18
ENDCHAR
STARTCHAR char92
ENCODING 124
SWIDTH 480 0
DWIDTH 8 0
BBX 8 8 0 0
BITMAP
C0
C0
30
30
C0
C0
30
30
ENDCHAR
STARTCHAR char93
ENCODING 125
SWIDTH 480 0
DWIDTH 8 0
BBX 8 8 0 0
BITMAP
18
18
18
18
18
18
18
18
ENDCHAR
STARTCHAR char94
ENCODING 126
SWIDTH 480 0
DWIDTH 8 0
BBX 7 5 1 1
BITMAP
06
7C
EC
6C
6C
ENDCHAR
STARTCHAR char95
ENCODING 127
SWIDTH 480 0
DWIDTH 8 0
BBX 8 8 0 0
BITMAP
FF
7F
3F
1F
0F
07
03
01
ENDCHAR
STARTCHAR char96
ENCODING 160
SWIDTH 480 0
DWIDTH 8 0
BBX 0 0 0 0
BITMAP
ENDCHAR
STARTCHAR char97
ENCODING 161
SWIDTH 480 0
DWIDTH 8 0
BBX 8 8 0 0
BITMAP
F0
F0
F0
F0
F0
F0
F0
F0
ENDCHAR
STARTCHAR char98
ENCODING 162
SWIDTH 480 0
DWIDTH 8 0
BBX 8 4 0 0
BITMAP
FF
FF
FF
FF
ENDCHAR
STARTCHAR char99
ENCODING 163
SWIDTH 480 0
DWIDTH 8 0
BBX 8 1 0 7
BITMAP
FF
ENDCHAR
STARTCHAR char100
ENCODING 164
SWIDTH 480 0
DWIDTH 8 0
BBX 8 1 0 0
BITMAP
FF
ENDCHAR
STARTCHAR char101
ENCODING 165
SWIDTH 480 0
DWIDTH 8 0
BBX 8 8 0 0
BITMAP
C0
C0
C0
C0
C0
C0
C0
C0
ENDCHAR
STARTCHAR char102
ENCODING 166
SWIDTH 480 0
DWIDTH 8 0
BBX 8 8 0 0
BITMAP
CC
CC
33
33
CC
CC
33
33
ENDCHAR
STARTCHAR char103
ENCODING 167
SWIDTH 480 0
DWIDTH 8 0
BBX 8 8 0 0
BITMAP
03
03
03
03
03
03
03
03
ENDCHAR
STARTCHAR char104
ENCODING 168
SWIDTH 480 0
DWIDTH 8 0
BBX 8 4 0 0
BITMAP
CC
CC
33
33
ENDCHAR
STARTCHAR char105
ENCODING 169
SWIDTH 480 0
DWIDTH 8 0
BBX 8 8 0 0
BITMAP
FF
FE
FC
F8
F0
E0
C0
80
ENDCHAR
STARTCHAR char106
ENCODING 170
SWIDTH 480 0
DWIDTH 8 0
BBX 8 8 0 0
BITMAP
03
03
03
03
03
03
03
03
ENDCHAR
STARTCHAR char107
ENCODING 171
SWIDTH 480 0
DWIDTH 8 0
BBX 8 8 0 0
BITMAP
18
18
18
1F
1F
18
18
18
ENDCHAR
STARTCHAR char108
ENCODING 172
SWIDTH 480 0
DWIDTH 8 0
BBX 4 4 4 0
BITMAP
F0
F0
F0
F0
ENDCHAR
STARTCHAR char109
ENCODING 173
SWIDTH 480 0
DWIDTH 8 0
BBX 5 5 3 3
BITMAP
C0
C0
C0
F8
F8
ENDCHAR
STARTCHAR char110
ENCODING 174
SWIDTH 480 0
DWIDTH 8 0
BBX 5 5 0 0
BITMAP
F8
F8
18
18
18
ENDCHAR
STARTCHAR char111
ENCODING 175
SWIDTH 480 0
DWIDTH 8 0
BBX 8 2 0 0
BITMAP
FF
FF
ENDCHAR
STARTCHAR char112
ENCODING 176
SWIDTH 480 0
DWIDTH 8 0
BBX 5 5 3 0
BITMAP
F8
F8
C0
C0
C0
ENDCHAR
STARTCHAR char113
ENCODING 177
SWIDTH 480 0
DWIDTH 8 0
BBX 8 5 0 3
BITMAP
18
18
18
FF
FF
ENDCHAR
STARTCHAR char114
ENCODING 178
SWIDTH 480 0
DWIDTH 8 0
BBX 8 5 0 0
BITMAP
FF
FF
18
18
18
ENDCHAR
STARTCHAR char115
ENCODING 179
SWIDTH 480 0
DWIDTH 8 0
BBX 8 8 0 0
BITMAP
18
18
18
F8
F8
18
18
18
ENDCHAR
STARTCHAR char116
ENCODING 180
SWIDTH 480 0
DWIDTH 8 0
BBX 8 8 0 0
BITMAP
C0
C0
C0
C0
C0
C0
C0
C0
ENDCHAR
STARTCHAR char117
ENCODING 181
SWIDTH 480 0
DWIDTH 8 0
BBX 8 8 0 0
BITMAP
E0
E0
E0
E0
E0
E0
E0
E0
ENDCHAR
STARTCHAR char118
ENCODING 182
SWIDTH 480 0
DWIDTH 8 0
BBX 8 8 0 0
BITMAP
07
07
07
07
07
07
07
07
ENDCHAR
STARTCHAR char119
ENCODING 183
SWIDTH 480 0
DWIDTH 8 0
BBX 8 2 0 6
BITMAP
FF
FF
ENDCHAR
STARTCHAR char120
ENCODING 184
SWIDTH 480 0
DWIDTH 8 0
BBX 8 3 0 5
BITMAP
FF
FF
FF
ENDCHAR
STARTCHAR char121
ENCODING 185
SWIDTH 480 0
DWIDTH 8 0
BBX 8 3 0 0
BITMAP
FF
FF
FF
ENDCHAR
STARTCHAR char122
ENCODING 186
SWIDTH 480 0
DWIDTH 8 0
BBX 8 8 0 0
BITMAP
03
03
03
03
03
03
FF
FF
ENDCHAR
STARTCHAR char123
ENCODING 187
SWIDTH 480 0
DWIDTH 8 0
BBX 4 4 0 0
BITMAP
F0
F0
F0
F0
ENDCHAR
STARTCHAR char124
ENCODING 188
SWIDTH 480 0
DWIDTH 8 0
BBX 4 4 4 4
BITMAP
F0
F0
F0
F0
ENDCHAR
STARTCHAR char125
ENCODING 189
SWIDTH 480 0
DWIDTH 8 0
BBX 5 5 0 3
BITMAP
18
18
18
F8
F8
ENDCHAR
STARTCHAR char126
ENCODING 190
SWIDTH 480 0
DWIDTH 8 0
BBX 4 4 0 4
BITMAP
F0
F0
F0
F0
ENDCHAR
STARTCHAR char127
ENCODING 191
SWIDTH 480 0
DWIDTH 8 0
BBX 8 8 0 0
BITMAP
F0
F0
F0
F0
0F
0F
0F
0F
ENDCHAR
STARTCHAR char64
ENCODING 192
SWIDTH 480 0
DWIDTH 8 0
BBX 8 2 0 3
BITMAP
FF
FF
ENDCHAR
STARTCHAR char65
ENCODING 193
SWIDTH 480 0
DWIDTH 8 0
BBX 7 7 1 1
BITMAP
10
38
7C
FE
FE
38
7C
ENDCHAR
STARTCHAR char66
ENCODING 194
SWIDTH 480 0
DWIDTH 8 0
BBX 8 8 0 0
BITMAP
18
18
18
18
18
18
18
18
ENDCHAR
STARTCHAR char67
ENCODING 195
SWIDTH 480 0
DWIDTH 8 0
BBX 8 2 0 3
BITMAP
FF
FF
ENDCHAR
STARTCHAR char68
ENCODING 196
SWIDTH 480 0
DWIDTH 8 0
BBX 8 2 0 4
BITMAP
FF
FF
ENDCHAR
STARTCHAR char69
ENCODING 197
SWIDTH 480 0
DWIDTH 8 0
BBX 8 2 0 5
BITMAP
FF
FF
ENDCHAR
STARTCHAR char70
ENCODING 198
SWIDTH 480 0
DWIDTH 8 0
BBX 8 2 0 2
BITMAP
FF
FF
ENDCHAR
STARTCHAR char71
ENCODING 199
SWIDTH 480 0
DWIDTH 8 0
BBX 8 8 0 0
BITMAP
30
30
30
30
30
30
30
30
ENDCHAR
STARTCHAR char72
ENCODING 200
SWIDTH 480 0
DWIDTH 8 0
BBX 8 8 0 0
BITMAP
0C
0C
0C
0C
0C
0C
0C
0C
ENDCHAR
STARTCHAR char73
ENCODING 201
SWIDTH 480 0
DWIDTH 8 0
BBX 5 5 0 0
BITMAP
E0
F0
38
18
18
ENDCHAR
STARTCHAR char74
ENCODING 202
SWIDTH 480 0
DWIDTH 8 0
BBX 5 5 3 3
BITMAP
C0
C0
E0
78
38
ENDCHAR
STARTCHAR char75
ENCODING 203
SWIDTH 480 0
DWIDTH 8 0
BBX 5 5 0 3
BITMAP
18
18
38
F0
E0
ENDCHAR
STARTCHAR char76
ENCODING 204
SWIDTH 480 0
DWIDTH 8 0
BBX 8 8 0 0
BITMAP
C0
C0
C0
C0
C0
C0
FF
FF
ENDCHAR
STARTCHAR char77
ENCODING 205
SWIDTH 480 0
DWIDTH 8 0
BBX 8 8 0 0
BITMAP
C0
E0
70
38
1C
0E
07
03
ENDCHAR
STARTCHAR char78
ENCODING 206
SWIDTH 480 0
DWIDTH 8 0
BBX 8 8 0 0
BITMAP
03
07
0E
1C
38
70
E0
C0
ENDCHAR
STARTCHAR char79
ENCODING 207
SWIDTH 480 0
DWIDTH 8 0
BBX 8 8 0 0
BITMAP
FF
FF
C0
C0
C0
C0
C0
C0
ENDCHAR
STARTCHAR char80
ENCODING 208
SWIDTH 480 0
DWIDTH 8 0
BBX 8 8 0 0
BITMAP
FF
FF
03
03
03
03
03
03
ENDCHAR
STARTCHAR char81
ENCODING 209
SWIDTH 480 0
DWIDTH 8 0
BBX 6 6 1 1
BITMAP
78
FC
FC
FC
FC
78
ENDCHAR
STARTCHAR char82
ENCODING 210
SWIDTH 480 0
DWIDTH 8 0
BBX 8 2 0 1
BITMAP
FF
FF
ENDCHAR
STARTCHAR char83
ENCODING 211
SWIDTH 480 0
DWIDTH 8 0
BBX 7 7 1 1
BITMAP
6C
FE
FE
FE
7C
38
10
ENDCHAR
STARTCHAR char84
ENCODING 212
SWIDTH 480 0
DWIDTH 8 0
BBX 8 8 0 0
BITMAP
60
60
60
60
60
60
60
60
ENDCHAR
STARTCHAR char85
ENCODING 213
SWIDTH 480 0
DWIDTH 8 0
BBX 5 5 3 0
BITMAP
38
78
E0
C0
C0
ENDCHAR
STARTCHAR char86
ENCODING 214
SWIDTH 480 0
DWIDTH 8 0
BBX 8 8 0 0
BITMAP
C3
E7
7E
3C
3C
7E
E7
C3
ENDCHAR
STARTCHAR char87
ENCODING 215
SWIDTH 480 0
DWIDTH 8 0
BBX 6 6 1 1
BITMAP
78
FC
CC
CC
FC
78
ENDCHAR
STARTCHAR char88
ENCODING 216
SWIDTH 480 0
DWIDTH 8 0
BBX 6 7 1 1
BITMAP
30
30
CC
CC
30
30
78
ENDCHAR
STARTCHAR char89
ENCODING 217
SWIDTH 480 0
DWIDTH 8 0
BBX 8 8 0 0
BITMAP
06
06
06
06
06
06
06
06
ENDCHAR
STARTCHAR char90
ENCODING 218
SWIDTH 480 0
DWIDTH 8 0
BBX 7 7 1 1
BITMAP
10
38
7C
FE
7C
38
10
ENDCHAR
STARTCHAR char91
ENCODING 219
SWIDTH 480 0
DWIDTH 8 0
BBX 8 8 0 0
BITMAP
18
18
18
FF
FF
18
18
18
ENDCHAR
STARTCHAR char92
ENCODING 220
SWIDTH 480 0
DWIDTH 8 0
BBX 8 8 0 0
BITMAP
C0
C0
30
30
C0
C0
30
30
ENDCHAR
STARTCHAR char93
ENCODING 221
SWIDTH 480 0
DWIDTH 8 0
BBX 8 8 0 0
BITMAP
18
18
18
18
18
18
18
18
ENDCHAR
STARTCHAR char94
ENCODING 222
SWIDTH 480 0
DWIDTH 8 0
BBX 7 5 1 1
BITMAP
06
7C
EC
6C
6C
ENDCHAR
STARTCHAR char95
ENCODING 223
SWIDTH 480 0
DWIDTH 8 0
BBX 8 8 0 0
BITMAP
FF
7F
3F
1F
0F
07
03
01
ENDCHAR
STARTCHAR char96
ENCODING 224
SWIDTH 480 0
DWIDTH 8 0
BBX 0 0 0 0
BITMAP
ENDCHAR
STARTCHAR char97
ENCODING 225
SWIDTH 480 0
DWIDTH 8 0
BBX 8 8 0 0
BITMAP
F0
F0
F0
F0
F0
F0
F0
F0
ENDCHAR
STARTCHAR char98
ENCODING 226
SWIDTH 480 0
DWIDTH 8 0
BBX 8 4 0 0
BITMAP
FF
FF
FF
FF
ENDCHAR
STARTCHAR char99
ENCODING 227
SWIDTH 480 0
DWIDTH 8 0
BBX 8 1 0 7
BITMAP
FF
ENDCHAR
STARTCHAR char100
ENCODING 228
SWIDTH 480 0
DWIDTH 8 0
BBX 8 1 0 0
BITMAP
FF
ENDCHAR
STARTCHAR char101
ENCODING 229
SWIDTH 480 0
DWIDTH 8 0
BBX 8 8 0 0
BITMAP
C0
C0
C0
C0
C0
C0
C0
C0
ENDCHAR
STARTCHAR char102
ENCODING 230
SWIDTH 480 0
DWIDTH 8 0
BBX 8 8 0 0
BITMAP
CC
CC
33
33
CC
CC
33
33
ENDCHAR
STARTCHAR char103
ENCODING 231
SWIDTH 480 0
DWIDTH 8 0
BBX 8 8 0 0
BITMAP
03
03
03
03
03
03
03
03
ENDCHAR
STARTCHAR char104
ENCODING 232
SWIDTH 480 0
DWIDTH 8 0
BBX 8 4 0 0
BITMAP
CC
CC
33
33
ENDCHAR
STARTCHAR char105
ENCODING 233
SWIDTH 480 0
DWIDTH 8 0
BBX 8 8 0 0
BITMAP
FF
FE
FC
F8
F0
E0
C0
80
ENDCHAR
STARTCHAR char106
ENCODING 234
SWIDTH 480 0
DWIDTH 8 0
BBX 8 8 0 0
BITMAP
03
03
03
03
03
03
03
03
ENDCHAR
STARTCHAR char107
ENCODING 235
SWIDTH 480 0
DWIDTH 8 0
BBX 8 8 0 0
BITMAP
18
18
18
1F
1F
18
18
18
ENDCHAR
STARTCHAR char108
ENCODING 236
SWIDTH 480 0
DWIDTH 8 0
BBX 4 4 4 0
BITMAP
F0
F0
F0
F0
ENDCHAR
STARTCHAR char109
ENCODING 237
SWIDTH 480 0
DWIDTH 8 0
BBX 5 5 3 3
BITMAP
C0
C0
C0
F8
F8
ENDCHAR
STARTCHAR char110
ENCODING 238
SWIDTH 480 0
DWIDTH 8 0
BBX 5 5 0 0
BITMAP
F8
F8
18
18
18
ENDCHAR
STARTCHAR char111
ENCODING 239
SWIDTH 480 0
DWIDTH 8 0
BBX 8 2 0 0
BITMAP
FF
FF
ENDCHAR
STARTCHAR char112
ENCODING 240
SWIDTH 480 0
DWIDTH 8 0
BBX 5 5 3 0
BITMAP
F8
F8
C0
C0
C0
ENDCHAR
STARTCHAR char113
ENCODING 241
SWIDTH 480 0
DWIDTH 8 0
BBX 8 5 0 3
BITMAP
18
18
18
FF
FF
ENDCHAR
STARTCHAR char114
ENCODING 242
SWIDTH 480 0
DWIDTH 8 0
BBX 8 5 0 0
BITMAP
FF
FF
18
18
18
ENDCHAR
STARTCHAR char115
ENCODING 243
SWIDTH 480 0
DWIDTH 8 0
BBX 8 8 0 0
BITMAP
18
18
18
F8
F8
18
18
18
ENDCHAR
STARTCHAR char116
ENCODING 244
SWIDTH 480 0
DWIDTH 8 0
BBX 8 8 0 0
BITMAP
C0
C0
C0
C0
C0
C0
C0
C0
ENDCHAR
STARTCHAR char117
ENCODING 245
SWIDTH 480 0
DWIDTH 8 0
BBX 8 8 0 0
BITMAP
E0
E0
E0
E0
E0
E0
E0
E0
ENDCHAR
STARTCHAR char118
ENCODING 246
SWIDTH 480 0
DWIDTH 8 0
BBX 8 8 0 0
BITMAP
07
07
07
07
07
07
07
07
ENDCHAR
STARTCHAR char119
ENCODING 247
SWIDTH 480 0
DWIDTH 8 0
BBX 8 2 0 6
BITMAP
FF
FF
ENDCHAR
STARTCHAR char120
ENCODING 248
SWIDTH 480 0
DWIDTH 8 0
BBX 8 3 0 5
BITMAP
FF
FF
FF
ENDCHAR
STARTCHAR char121
ENCODING 249
SWIDTH 480 0
DWIDTH 8 0
BBX 8 3 0 0
BITMAP
FF
FF
FF
ENDCHAR
STARTCHAR char122
ENCODING 250
SWIDTH 480 0
DWIDTH 8 0
BBX 8 8 0 0
BITMAP
03
03
03
03
03
03
FF
FF
ENDCHAR
STARTCHAR char123
ENCODING 251
SWIDTH 480 0
DWIDTH 8 0
BBX 4 4 0 0
BITMAP
F0
F0
F0
F0
ENDCHAR
STARTCHAR char124
ENCODING 252
SWIDTH 480 0
DWIDTH 8 0
BBX 4 4 4 4
BITMAP
F0
F0
F0
F0
ENDCHAR
STARTCHAR char125
ENCODING 253
SWIDTH 480 0
DWIDTH 8 0
BBX 5 5 0 3
BITMAP
18
18
18
F8
F8
ENDCHAR
STARTCHAR char126
ENCODING 254
SWIDTH 480 0
DWIDTH 8 0
BBX 4 4 0 4
BITMAP
F0
F0
F0
F0
ENDCHAR
STARTCHAR char94
ENCODING 255
SWIDTH 480 0
DWIDTH 8 0
BBX 7 5 1 1
BITMAP
06
7C
EC
6C
6C
ENDCHAR
ENDFONT
